<?xml version="1.0" encoding="utf-8"?>
<!-- Generator: Adobe Illustrator 24.0.1, SVG Export Plug-In . SVG Version: 6.00 Build 0)  -->
<svg version="1.1" id="Layer_1" xmlns="http://www.w3.org/2000/svg" xmlns:xlink="http://www.w3.org/1999/xlink" x="0px" y="0px"
	 viewBox="0 0 113.39 113.39" style="enable-background:new 0 0 113.39 113.39;" xml:space="preserve">
<style type="text/css">
	.st0{fill:#F4F4F4;}
</style>
<path class="st0" d="M38.68,26.43c-3.87,1.45-6.9,4.32-8.57,8.07c-0.07,0.15-0.13,0.33-0.19,0.48L6.28,88.45
	c-1.07,2.41,0.02,5.22,2.43,6.29c0.63,0.29,1.3,0.42,1.93,0.42c1.84,0,3.6-1.07,4.38-2.85l23.83-53.92c0.61-1.39,1.74-2.45,3.19-3
	c1.48-0.55,3.1-0.5,4.59,0.15c2.18,0.98,3.58,3.1,3.58,5.42v49.43c0,2.64,2.14,4.78,4.78,4.78c2.66,0,4.78-2.14,4.78-4.78V40.95
	c0-0.17,0-0.33-0.02-0.5C59.59,34.52,56,29.2,50.5,26.79c-2.04-0.9-4.21-1.35-6.37-1.35C42.29,25.44,40.45,25.77,38.68,26.43"/>
<path class="st0" d="M94.37,27.87L76.92,67.33v-26.8c0-2.64-2.12-4.78-4.78-4.78c-2.64,0-4.78,2.14-4.78,4.78v49.43
	c0,0.23,0.02,0.44,0.06,0.67c0.02,0.23,0.08,0.44,0.13,0.67c0.08,0.21,0.15,0.42,0.25,0.63c0.1,0.21,0.19,0.4,0.33,0.59
	c0.12,0.19,0.25,0.38,0.4,0.55c0.46,0.52,1.04,0.96,1.7,1.25c0.62,0.26,1.28,0.4,1.91,0.4c0.69,0,1.36-0.15,1.99-0.42
	c0.21-0.1,0.4-0.21,0.59-0.33c0.04-0.01,0.08-0.04,0.09-0.05c0.15-0.12,0.31-0.23,0.46-0.36c0.17-0.13,0.33-0.31,0.48-0.48
	c0.15-0.17,0.3-0.36,0.42-0.57c0.12-0.17,0.21-0.36,0.31-0.55c0.02-0.02,0.02-0.06,0.04-0.08l0.02-0.06l26.57-60.08
	c1.07-2.41-0.01-5.24-2.45-6.29c-0.63-0.28-1.29-0.41-1.93-0.41C96.89,25.03,95.14,26.09,94.37,27.87"/>
</svg>
